<svg xmlns="http://www.w3.org/2000/svg" xmlns:xlink="http://www.w3.org/1999/xlink" viewBox="0 0 158 38">
  <defs>
    <linearGradient id="mk-secby_gradient-c">
      <stop offset="0" stop-color="#474cff"/>
      <stop offset="1" stop-color="#249afd"/>
    </linearGradient>
    <linearGradient id="mk-secby_gradient-b">
      <stop offset="0" stop-color="#377aff"/>
      <stop offset=".922" stop-color="#27e3ea"/>
      <stop offset="1" stop-color="#84f7d0"/>
    </linearGradient>
    <linearGradient id="mk-secby_gradient-a">
      <stop offset="0" stop-color="#5421ff"/>
      <stop offset=".967" stop-color="#27e3ea"/>
      <stop offset="1" stop-color="#84f7d0"/>
    </linearGradient>
    <linearGradient xlink:href="#mk-secby_gradient-a" id="mk-secby_gradient-d" x1="5.996" x2="30.294" y1="10.891" y2="10.891" gradientTransform="matrix(1.00213 0 0 1 .001 .04)" gradientUnits="userSpaceOnUse"/>
    <linearGradient xlink:href="#mk-secby_gradient-b" id="mk-secby_gradient-f" x1="136.255" x2="138.715" y1="17.755" y2="31.748" gradientTransform="matrix(1.01162 0 0 1.03997 -1.639 -.957)" gradientUnits="userSpaceOnUse"/>
    <linearGradient xlink:href="#mk-secby_gradient-c" id="mk-secby_gradient-e" x1="141.472" x2="146.546" y1="7.627" y2="19.242" gradientTransform="translate(.012 .135)" gradientUnits="userSpaceOnUse"/>
  </defs>
  <path class="mk-secby_text mk-secby_masterkey" color="#202020" fill="currentcolor" d="M6.756 18.604h4.326l3.001 7.054 3.02-7.054h4.316v13.18h-3.213v-9.64l-3.037 7.107h-2.154l-3.037-7.107v9.64H6.756Zm25.99 10.779H27.43l-.838 2.402h-3.417l4.882-13.18h4.052l4.882 13.18h-3.416zm-4.467-2.445h3.61l-1.8-5.244zm19.633-7.918v2.789q-1.085-.486-2.118-.733t-1.951-.247q-1.219 0-1.801.335-.583.336-.583 1.042 0 .53.389.83.397.291 1.43.503l1.447.291q2.199.442 3.126 1.342.927.9.927 2.56 0 2.181-1.298 3.25-1.289 1.059-3.946 1.059-1.254 0-2.516-.239-1.263-.238-2.525-.706v-2.87q1.262.672 2.436 1.016 1.183.336 2.278.336 1.112 0 1.704-.371.591-.371.591-1.06 0-.618-.406-.953-.397-.336-1.598-.6l-1.315-.292q-1.977-.423-2.896-1.35-.909-.927-.909-2.499 0-1.968 1.271-3.028 1.272-1.06 3.655-1.06 1.086 0 2.234.169 1.147.159 2.374.485zm2.278-.416h12.148v2.57h-4.37v10.61h-3.4v-10.61H50.19zm13.904 0h9.173v2.57h-5.774v2.453h5.43v2.57h-5.43v3.019h5.968v2.569h-9.367zm17.18 5.844q1.068 0 1.527-.397.468-.397.468-1.306 0-.9-.468-1.29-.46-.388-1.527-.388h-1.43v3.381zm-1.43 2.349v4.988h-3.4v-13.18h5.192q2.604 0 3.813.873 1.219.874 1.219 2.763 0 1.307-.636 2.146-.627.838-1.898 1.236.697.158 1.245.723.556.557 1.121 1.695l1.845 3.744h-3.62l-1.606-3.276q-.486-.988-.989-1.35-.494-.362-1.324-.362zm10.523-8.193h3.398v4.812l4.9-4.812h3.946l-6.347 6.242 7 6.939H99.01l-5.244-5.191v5.19h-3.398zm24.763 0h3.716l3.002 4.697 3.001-4.697h3.726l-5.024 7.628v5.553h-3.398v-5.553z"/>
  <path class="mk-secby_text mk-secby_masterkey" color="#202020" stroke="currentcolor" fill="none" stroke-width="2.476" d="m113.331 25.054-7.526-.03.007 5.68 7.95.02" paint-order="markers fill stroke"/>
  <path class="mk-secby_text mk-secby_masterkey" color="#202020" fill="currentcolor" d="m113.8 18.51-14.093.113.02 2.477 14.095-.114z"/>
  <path class="mk-secby_text mk-secby_securedby" color="#202020" fill="currentcolor" d="M38.122 11.027q0 .447-.236.764-.232.314-.653.48-.421.165-.991.165-.301 0-.57-.028-.269-.027-.494-.08-.225-.05-.396-.127v-.561q.273.107.665.2.392.09.82.09.4 0 .676-.1.275-.104.417-.294.145-.192.145-.461 0-.259-.12-.43-.12-.176-.399-.318-.276-.144-.755-.306-.338-.114-.595-.248-.258-.138-.432-.31-.175-.173-.265-.4-.088-.227-.088-.52 0-.403.215-.69.217-.289.599-.44.384-.155.882-.155.425 0 .784.075.363.076.664.204l-.192.503q-.287-.114-.61-.19-.32-.076-.66-.076-.342 0-.578.097-.232.093-.356.265-.123.172-.123.41 0 .265.116.441.12.176.378.314.261.134.69.282.468.162.794.345.327.179.498.44.17.259.17.659zm4.038 1.34h-2.956V7.33h2.955v.517h-2.338v1.63h2.204v.51h-2.204v1.863h2.338zm3.445-4.593q-.44 0-.792.145-.348.141-.595.414-.243.268-.374.65-.13.383-.13.862 0 .634.206 1.102.21.465.625.72.417.255 1.041.255.356 0 .668-.055.316-.058.614-.144v.51q-.29.103-.61.151-.32.052-.759.052-.81 0-1.354-.317-.54-.32-.813-.903-.269-.582-.269-1.374 0-.572.167-1.044.171-.476.494-.82.327-.345.799-.53.475-.19 1.089-.19.403 0 .777.075.374.076.675.218l-.247.496q-.254-.11-.559-.19-.301-.083-.653-.083Zm6.429-.444v3.26q0 .533-.229.95-.225.417-.682.658-.458.238-1.147.238-.984 0-1.5-.507-.512-.506-.512-1.354V7.33h.621v3.263q0 .64.356.988.36.348 1.07.348.487 0 .796-.165.312-.169.461-.469.153-.303.153-.699V7.33Zm2.839 0q.653 0 1.078.155.429.152.64.465.21.314.21.8 0 .399-.153.668-.152.265-.4.43-.246.166-.525.255l1.455 2.264h-.719l-1.3-2.102h-1.103v2.102h-.617V7.33Zm-.036.506h-.78V9.77h.841q.65 0 .955-.251.309-.252.309-.741 0-.513-.327-.727-.323-.214-.998-.214zm6.146 4.531h-2.955V7.33h2.955v.517h-2.338v1.63h2.204v.51h-2.204v1.863h2.338zM66.374 9.8q0 .851-.327 1.423-.326.568-.947.858-.617.286-1.5.286h-1.44V7.33h1.6q.81 0 1.394.283.585.279.9.83.32.548.32 1.357zm-.65.02q0-.678-.24-1.119-.235-.44-.696-.654-.458-.217-1.122-.217h-.89v4.034h.752q1.096 0 1.644-.514.552-.513.552-1.53zm3.761-2.49h1.503q.995 0 1.496.283.501.282.501.96 0 .294-.12.528-.116.23-.341.382-.225.152-.556.21v.035q.349.051.618.19.268.137.42.385.153.248.153.63 0 .466-.229.786-.225.32-.638.486-.414.162-.98.162h-1.827zm.617 2.16h1.017q.693 0 .958-.217.269-.217.269-.634 0-.43-.32-.62-.315-.19-1.009-.19h-.915zm0 .493v1.884h1.104q.708 0 1.002-.262.294-.265.294-.713 0-.286-.134-.489-.13-.203-.429-.31-.294-.11-.787-.11zm5.54-.128 1.413-2.525h.664l-1.768 3.083v1.954h-.617V10.44l-1.772-3.11h.675z"/>
  <path class="mk-secby_text mk-secby_bv-text" color="#000" fill="currentcolor" d="m92.309 12.886-.576-1.65h-2.25l-.576 1.65H87.89l2.19-5.969h1.07l2.187 5.969zm-.825-2.488-.56-1.627-.092-.297-.121-.394-.1-.341q-.041.166-.102.374-.056.203-.112.382-.053.179-.08.276l-.564 1.627zm7.54 2.488h-1.187L94.954 8.14h-.036q.016.24.028.508.016.269.024.553.012.285.02.578v3.106h-.877V6.942h1.18l2.878 4.712h.028l-.02-.476-.024-.553q-.008-.288-.012-.557V6.942h.881zm6.036 0h-1.112l-1.832-2.7-.58.476v2.224h-.966V6.942h.966v2.842q.178-.22.359-.44l.362-.439 1.659-1.963h1.09l-2.197 2.602z"/>
  <path class="mk-secby_text mk-secby_bv-text" color="#000" fill="currentcolor" d="m114.856 12.842-.572-1.65h-2.238l-.572 1.65h-1.013l2.178-5.97h1.065l2.173 5.97zm-.82-2.488-.557-1.627-.092-.297-.12-.394-.1-.342q-.04.167-.1.374-.056.204-.112.383l-.08.276-.56 1.627zm7.209-3.457v3.847q0 .622-.26 1.114-.257.492-.777.781-.52.285-1.309.285-1.125 0-1.713-.598-.584-.602-.584-1.598v-3.83h.96v3.744q0 .745.344 1.098.345.354 1.03.354.472 0 .768-.167.3-.17.44-.496.144-.329.144-.793v-3.74Zm1.493 5.945V6.897h.96v5.116h2.486v.83zm6.484 0h-.964V7.727h-1.714v-.83h4.387v.83h-1.709z"/>
  <g class="mk-secby_bv-capitals" color="#0f75bc" fill="currentcolor" stroke-width=".268">
    <path d="M82.18 5.359h2.351q1.509 0 2.284.424.775.423.775 1.488 0 .429-.14.775-.134.346-.392.568-.258.223-.63.29v.052q.377.077.682.268.305.186.485.548.186.357.186.95 0 .688-.335 1.18-.336.49-.962.754-.62.258-1.478.258H82.18Zm1.602 2.992h.93q.698 0 .966-.217.269-.222.269-.651 0-.434-.32-.62-.316-.192-1.003-.192h-.842zm0 1.271v1.969h1.044q.723 0 1.007-.279.284-.28.284-.75 0-.278-.124-.49-.124-.212-.418-.331-.29-.119-.801-.119Z" transform="scale(.99706 1.00295)"/>
    <path d="m112.26 5.395-2.569 7.555h-1.746l-2.564-7.555H107l1.421 4.495q.036.114.119.43.083.31.165.66.088.347.119.574.031-.227.109-.573.082-.346.16-.656.082-.316.119-.435l1.431-4.495z" transform="scale(.99706 1.00295)"/>
  </g>
  <path fill="url(#mk-secby_gradient-d)" d="m30.36 10.32-24.35.022.002 1.201 24.35-.022z"/>
  <path fill="none" stroke="url(#mk-secby_gradient-e)" stroke-width="2.365" d="m138.131 17.646-.056-6.336s.178-3.208 4.614-3.172c4.435.036 4.627 3.077 4.627 3.077l.133 6.457"/>
  <path fill="url(#mk-secby_gradient-f)" d="M136.262 17.496h12.761a3.04 3.04 0 0 1 3.046 3.046v8.804a3.04 3.04 0 0 1-3.046 3.046h-12.761a3.04 3.04 0 0 1-3.046-3.046v-8.804a3.04 3.04 0 0 1 3.046-3.046z" paint-order="markers fill stroke"/>
  <ellipse fill="#fff" paint-order="markers fill stroke" cx="142.611" cy="23.382" rx="1.762" ry="1.73"/>
  <path fill="#fff" d="m143.371 24.809-1.498.013.03 3.293 1.5-.013z"/>
</svg>
